<svg xmlns="http://www.w3.org/2000/svg" viewBox="0 0 507 507" width="1em" height="1em" preserveAspectRatio="xMidYMid meet">
 <g fill="#ffffff">
  <path d="M0 253.50 l0 -253.50 253.50 0 253.50 0 0 253.50 0 253.50 -253.50 0 -253.50 0 0 -253.50z m317.02 210.72 c2.53 -0.94 5.10 -2.97 6.68 -5.40 1.24 -1.88 1.34 -2.43 1.68 -9.70 0.15 -4.26 0.35 -8.02 0.35 -8.32 0.05 -0.50 10.99 -0.64 52.98 -0.64 l52.93 0 0.20 8.07 c0.20 9.11 0.69 10.79 4.21 13.67 3.27 2.72 5.64 3.12 18.32 2.92 l11.29 -0.15 2.62 -1.44 c3.02 -1.68 4.90 -3.96 5.84 -7.13 1.04 -3.37 0.99 -53.37 -0.05 -58.18 -1.04 -4.85 -3.17 -8.71 -8.47 -15.35 -4.21 -5.30 -4.65 -6.09 -4.65 -7.92 l0 -2.08 4.21 -2.13 c4.36 -2.28 6.68 -4.41 6.68 -6.19 0 -1.78 -1.04 -4.95 -2.08 -6.44 -1.88 -2.67 -2.92 -2.82 -9.80 -1.68 -3.42 0.54 -6.83 0.84 -7.58 0.64 -1.53 -0.35 -2.97 -2.97 -7.53 -13.67 -3.96 -9.36 -5.45 -12.03 -8.27 -14.66 -1.34 -1.24 -3.91 -2.97 -5.74 -3.81 l-3.32 -1.58 -46.79 -0.15 c-29.81 -0.10 -48.17 0.05 -50.60 0.35 -4.60 0.64 -8.02 2.23 -11.39 5.40 -3.27 3.02 -4.21 4.75 -8.27 15.05 -1.93 4.85 -3.96 9.70 -4.51 10.84 l-1.09 2.03 -4.26 -0.30 c-2.38 -0.15 -5.64 -0.40 -7.33 -0.59 -2.87 -0.30 -3.07 -0.25 -4.80 1.29 -1.73 1.49 -3.32 5.10 -3.32 7.53 0 1.58 2.62 3.86 6.93 5.99 4.11 2.03 4.21 2.13 4.36 3.96 0.20 2.28 0.10 2.43 -5.79 9.51 -4.80 5.69 -7.03 9.65 -7.92 14.01 -0.79 3.76 -0.74 55.80 0.05 58.08 1.44 4.16 4.90 7.43 8.96 8.37 2.92 0.69 23.17 0.54 25.25 -0.20z m-51.99 -58.97 c0.25 -13.32 0.59 -15.30 4.26 -23.22 l1.93 -4.16 -1.53 -3.12 c-1.49 -2.87 -1.58 -3.52 -1.73 -9.56 -0.20 -5.55 -0.05 -7.13 0.89 -10.60 1.98 -7.38 5.79 -12.38 11.68 -15.25 3.02 -1.53 4.16 -1.78 8.22 -2.03 l4.70 -0.30 1.63 -4.51 c5.40 -14.95 13.67 -23.37 26.09 -26.59 3.56 -0.89 5.74 -0.94 42.43 -0.94 21.29 0 39.16 -0.15 39.81 -0.30 l1.09 -0.30 -0.10 -84.52 -0.15 -84.47 -1.39 -4.41 c-2.62 -8.37 -6.24 -14.26 -11.83 -19.31 -5.99 -5.45 -13.91 -9.16 -21.74 -10.20 -2.92 -0.40 -38.27 -0.50 -120.02 -0.40 l-115.86 0.15 -4.36 1.39 c-2.43 0.74 -5.30 1.83 -6.44 2.38 -11.49 5.74 -19.71 16.34 -22.38 28.91 -0.79 3.66 -0.84 12.38 -0.79 125.36 0.05 133.78 -0.20 124.62 3.07 132.74 4.26 10.69 13.86 19.85 24.71 23.47 4.31 1.49 12.82 1.63 82.54 1.63 l55.01 0 0.25 -11.88z"/>
  <path d="M303.06 410.55 c-0.94 -0.45 -2.18 -1.49 -2.72 -2.23 -0.94 -1.29 -1.04 -2.08 -1.04 -10.55 l0 -9.11 1.58 -1.58 c2.82 -2.77 4.95 -2.62 23.02 1.78 8.57 2.08 16.29 4.26 17.18 4.80 2.18 1.34 3.02 3.61 3.02 8.22 0 4.95 -0.94 6.93 -3.96 8.47 -2.13 1.09 -2.57 1.09 -18.81 1.09 -14.80 0 -16.78 -0.10 -18.27 -0.89z"/>
  <path d="M416 410.45 c-2.43 -1.49 -3.22 -3.81 -2.97 -9.06 0.15 -4.31 0.20 -4.41 1.93 -6.04 1.63 -1.49 2.87 -1.88 17.23 -5.40 16.78 -4.06 19.95 -4.46 22.68 -2.77 2.33 1.39 2.72 3.42 2.53 12.48 -0.15 6.93 -0.25 7.92 -1.19 9.16 -1.93 2.57 -2.08 2.62 -20.99 2.62 -16.78 0 -17.68 -0.05 -19.21 -0.99z"/>
  <path d="M320.93 364.90 c-2.92 -1.24 -2.62 -4.90 1.49 -17.33 2.28 -6.83 3.37 -9.51 4.41 -10.50 l1.34 -1.39 49.51 0 c48.57 0 49.51 0 50.70 0.99 1.49 1.14 2.03 2.38 5.89 13.62 3.17 9.11 3.52 11.73 1.98 13.67 l-0.94 1.19 -56.64 0.10 c-33.37 0.05 -57.04 -0.10 -57.73 -0.35z"/>
  <path d="M178.74 261.17 l0 -102.74 36.54 0 c36.79 0 49.31 0.40 57.04 1.73 28.52 4.95 45.70 20.30 51.29 45.80 0.79 3.52 0.94 6.29 0.94 17.08 -0.05 11.44 -0.15 13.42 -1.14 17.92 -2.77 12.63 -7.77 21.88 -16.64 30.60 -11.49 11.39 -25.35 17.43 -44.46 19.51 -2.67 0.30 -10.74 0.54 -17.97 0.54 l-13.12 0 0 36.14 0 36.14 -26.24 0 -26.24 0 0 -102.74z m81.25 -15.45 c7.23 -3.56 11.44 -9.06 13.12 -17.08 2.13 -10 -2.48 -20.10 -10.89 -23.96 -5.10 -2.33 -7.87 -2.77 -19.71 -3.02 l-11.29 -0.30 0 23.42 0 23.37 12.28 -0.15 12.33 -0.20 4.16 -2.08z"/>
 </g>
 <g fill="#25673b">
  <path d="M290.29 465.91 c-4.06 -0.94 -7.53 -4.21 -8.96 -8.37 -0.79 -2.28 -0.84 -57.29 -0.05 -61.05 0.89 -4.36 3.12 -8.32 7.92 -14.01 5.50 -6.59 6.09 -7.48 5.64 -8.22 -0.20 -0.30 -1.83 -1.24 -3.66 -2.03 -6.93 -3.12 -8.32 -5.15 -7.23 -10.45 0.84 -3.96 1.24 -4.80 3.32 -6.54 1.53 -1.29 1.73 -1.34 6.09 -1.04 2.43 0.15 5.74 0.40 7.28 0.59 l2.77 0.30 1.09 -2.03 c0.54 -1.14 2.57 -5.99 4.51 -10.84 4.06 -10.30 5 -12.03 8.27 -15.05 3.37 -3.17 6.78 -4.75 11.39 -5.40 2.43 -0.30 21.29 -0.45 52.09 -0.35 l48.27 0.15 3.32 1.58 c1.83 0.84 4.41 2.57 5.74 3.81 2.82 2.62 4.31 5.30 8.27 14.66 3.71 8.71 5.99 13.17 6.83 13.52 0.40 0.15 3.52 -0.20 6.88 -0.74 3.61 -0.64 6.73 -0.89 7.58 -0.69 3.37 0.84 5.69 5.25 5.69 10.65 0 3.32 -1.39 4.85 -6.68 7.58 -2.33 1.19 -4.21 2.38 -4.21 2.72 0 0.30 2.13 3.17 4.65 6.44 5.30 6.63 7.43 10.50 8.47 15.35 1.04 4.80 1.09 57.78 0.05 61.15 -0.94 3.17 -2.82 5.45 -5.84 7.13 l-2.62 1.44 -12.77 0.15 c-14.31 0.20 -16.44 -0.15 -19.80 -2.92 -3.52 -2.87 -4.01 -4.56 -4.21 -13.67 l-0.20 -8.07 -51.44 0 c-40.80 0 -51.44 0.15 -51.49 0.64 0 0.30 -0.20 4.06 -0.35 8.32 -0.35 7.28 -0.45 7.82 -1.68 9.70 -1.58 2.43 -4.16 4.46 -6.68 5.40 -2.08 0.74 -25.30 0.89 -28.22 0.20z m48.37 -57.04 c2.67 -1.39 3.96 -3.61 3.96 -6.98 0 -3.17 -1.09 -5.55 -3.02 -6.73 -2.43 -1.49 -32.23 -8.66 -34.31 -8.27 -0.89 0.15 -2.28 0.99 -3.07 1.83 l-1.44 1.49 0 7.62 c0 6.88 0.10 7.72 1.04 9.01 2.18 3.02 2.87 3.12 19.51 3.12 14.70 0 15.20 -0.05 17.33 -1.09z m113.83 0.45 c2.72 -1.39 3.27 -2.87 3.47 -9.61 0.20 -7.48 -0.30 -9.70 -2.57 -11.04 -0.89 -0.54 -2.18 -0.99 -2.92 -0.99 -0.69 0 -8.27 1.68 -16.78 3.76 -14.26 3.52 -15.60 3.91 -17.18 5.40 -1.53 1.39 -1.78 1.93 -1.98 4.51 -0.25 3.71 0.74 6.24 2.97 7.62 1.53 0.94 2.48 0.99 17.73 0.99 11.78 0 16.39 -0.20 17.28 -0.64z m-19.06 -45.90 c2.62 -0.99 2.62 -2.23 0.05 -9.70 -3.86 -11.39 -5.15 -14.46 -6.54 -15.55 -1.24 -0.99 -1.83 -0.99 -49.26 -0.99 l-48.03 0 -1.34 1.39 c-1.04 0.99 -2.18 3.71 -4.46 10.55 -3.76 11.29 -3.96 13.27 -1.34 14.31 1.49 0.59 109.32 0.64 110.91 0z"/>
  <path d="M133.19 418.32 c-2.33 -0.20 -5.64 -0.79 -7.43 -1.39 -10.65 -3.42 -20.45 -12.68 -24.71 -23.42 -3.27 -8.12 -3.02 1.19 -3.12 -134.23 -0.10 -115.96 -0.05 -123.14 0.79 -126.85 2.82 -12.68 10.99 -23.17 22.43 -28.91 1.14 -0.54 4.01 -1.63 6.44 -2.38 l4.36 -1.39 117.34 -0.15 c82.78 -0.10 118.58 0 121.50 0.40 7.82 1.04 15.74 4.75 21.74 10.20 5.59 5.05 9.21 10.94 11.83 19.31 l1.39 4.41 0.15 85.95 0.10 86 -1.09 0.30 c-0.64 0.15 -18.52 0.30 -39.81 0.30 -36.69 0 -38.87 0.05 -42.43 0.94 -12.43 3.22 -20.70 11.64 -26.09 26.59 l-1.63 4.51 -4.70 0.30 c-4.11 0.25 -5.20 0.50 -8.32 2.03 -5.79 2.87 -9.51 7.77 -11.54 15.15 -1.88 6.83 -1.24 14.16 1.63 18.96 l1.68 2.72 -2.43 4.90 c-4.11 8.37 -4.51 10.50 -4.75 24.21 l-0.25 11.93 -64.46 -0.05 c-35.40 0 -66.30 -0.20 -68.62 -0.35z m96.55 -92.04 l0 -36.14 13.12 0 c7.23 0 15.30 -0.25 17.97 -0.54 19.11 -2.08 32.97 -8.12 44.46 -19.51 8.86 -8.71 13.91 -17.97 16.64 -30.60 1.53 -6.98 1.63 -25.50 0.20 -32.03 -5.59 -25.50 -22.78 -40.85 -51.29 -45.80 -7.67 -1.34 -20.20 -1.73 -55.55 -1.73 l-35.05 0 0 101.25 0 101.25 24.76 0 24.76 0 0 -36.14z"/>
  <path d="M229.73 224.78 l0 -24.90 12.77 0.30 c9.65 0.20 13.42 0.45 15.70 1.04 10.99 3.07 16.24 9.51 16.93 20.84 0.69 11.59 -4.11 20.45 -13.67 25.15 l-4.16 2.08 -13.81 0.15 -13.76 0.20 0 -24.85z"/>
 </g>
</svg>